# xmcd
#
# Track frame offsets:
#	225
#	23120
#	43362
#	64825
#	85462
#	102496
#	122804
#	142950
#
# Disc length: 2169 seconds
#
# Revision: 0
# Processed by: cddbd v1.4PL0 Copyright (c) Steve Scherf et al.
# Submitted via: EasyCDDAExtractor 5.0.4.1
#
DISCID=73087608
DTITLE=Deskkontrolados
DYEAR=1900
DGENRE=blues
TTITLE0=Intro-Pegate Un Chin
TTITLE1=Dime Que Si
TTITLE2=No Se Que Tiene
TTITLE3=La Vecinita
TTITLE4=A Ti
TTITLE5=Oe - Oa
TTITLE6=La Distancia
TTITLE7=Que Quieres de Mi
EXTD=
EXTT0=
EXTT1=
EXTT2=
EXTT3=
EXTT4=
EXTT5=
EXTT6=
EXTT7=
PLAYORDER=
